<svg width="550" height="53" viewBox="0 0 550 53" fill="none" xmlns="http://www.w3.org/2000/svg">
<rect width="550" height="52.1802" fill="#0000FF"/>
<path d="M29.4053 31.14C28.4853 31.14 27.6586 30.98 26.9253 30.66C26.2053 30.3267 25.6386 29.8733 25.2253 29.3C24.812 28.7133 24.5986 28.04 24.5853 27.28H26.5253C26.592 27.9333 26.8586 28.4867 27.3253 28.94C27.8053 29.38 28.4986 29.6 29.4053 29.6C30.272 29.6 30.952 29.3867 31.4453 28.96C31.952 28.52 32.2053 27.96 32.2053 27.28C32.2053 26.7467 32.0586 26.3133 31.7653 25.98C31.472 25.6467 31.1053 25.3933 30.6653 25.22C30.2253 25.0467 29.632 24.86 28.8853 24.66C27.9653 24.42 27.2253 24.18 26.6653 23.94C26.1186 23.7 25.6453 23.3267 25.2453 22.82C24.8586 22.3 24.6653 21.6067 24.6653 20.74C24.6653 19.98 24.8586 19.3067 25.2453 18.72C25.632 18.1333 26.172 17.68 26.8653 17.36C27.572 17.04 28.3786 16.88 29.2853 16.88C30.592 16.88 31.6586 17.2067 32.4853 17.86C33.3253 18.5133 33.7986 19.38 33.9053 20.46H31.9053C31.8386 19.9267 31.5586 19.46 31.0653 19.06C30.572 18.6467 29.9186 18.44 29.1053 18.44C28.3453 18.44 27.7253 18.64 27.2453 19.04C26.7653 19.4267 26.5253 19.9733 26.5253 20.68C26.5253 21.1867 26.6653 21.6 26.9453 21.92C27.2386 22.24 27.592 22.4867 28.0053 22.66C28.432 22.82 29.0253 23.0067 29.7853 23.22C30.7053 23.4733 31.4453 23.7267 32.0053 23.98C32.5653 24.22 33.0453 24.6 33.4453 25.12C33.8453 25.6267 34.0453 26.32 34.0453 27.2C34.0453 27.88 33.8653 28.52 33.5053 29.12C33.1453 29.72 32.612 30.2067 31.9053 30.58C31.1986 30.9533 30.3653 31.14 29.4053 31.14ZM46.7236 25.1C46.7236 25.4467 46.7036 25.8133 46.6636 26.2H37.9036C37.9703 27.28 38.3369 28.1267 39.0036 28.74C39.6836 29.34 40.5036 29.64 41.4636 29.64C42.2503 29.64 42.9036 29.46 43.4236 29.1C43.9569 28.7267 44.3303 28.2333 44.5436 27.62H46.5036C46.2103 28.6733 45.6236 29.5333 44.7436 30.2C43.8636 30.8533 42.7703 31.18 41.4636 31.18C40.4236 31.18 39.4903 30.9467 38.6636 30.48C37.8503 30.0133 37.2103 29.3533 36.7436 28.5C36.2769 27.6333 36.0436 26.6333 36.0436 25.5C36.0436 24.3667 36.2703 23.3733 36.7236 22.52C37.1769 21.6667 37.8103 21.0133 38.6236 20.56C39.4503 20.0933 40.3969 19.86 41.4636 19.86C42.5036 19.86 43.4236 20.0867 44.2236 20.54C45.0236 20.9933 45.6369 21.62 46.0636 22.42C46.5036 23.2067 46.7236 24.1 46.7236 25.1ZM44.8436 24.72C44.8436 24.0267 44.6903 23.4333 44.3836 22.94C44.0769 22.4333 43.6569 22.0533 43.1236 21.8C42.6036 21.5333 42.0236 21.4 41.3836 21.4C40.4636 21.4 39.6769 21.6933 39.0236 22.28C38.3836 22.8667 38.0169 23.68 37.9236 24.72H44.8436ZM50.9459 16.2V31H49.1259V16.2H50.9459ZM64.0478 25.1C64.0478 25.4467 64.0278 25.8133 63.9878 26.2H55.2278C55.2945 27.28 55.6611 28.1267 56.3278 28.74C57.0078 29.34 57.8278 29.64 58.7878 29.64C59.5745 29.64 60.2278 29.46 60.7478 29.1C61.2811 28.7267 61.6545 28.2333 61.8678 27.62H63.8278C63.5345 28.6733 62.9478 29.5333 62.0678 30.2C61.1878 30.8533 60.0945 31.18 58.7878 31.18C57.7478 31.18 56.8145 30.9467 55.9878 30.48C55.1745 30.0133 54.5345 29.3533 54.0678 28.5C53.6011 27.6333 53.3678 26.6333 53.3678 25.5C53.3678 24.3667 53.5945 23.3733 54.0478 22.52C54.5011 21.6667 55.1345 21.0133 55.9478 20.56C56.7745 20.0933 57.7211 19.86 58.7878 19.86C59.8278 19.86 60.7478 20.0867 61.5478 20.54C62.3478 20.9933 62.9611 21.62 63.3878 22.42C63.8278 23.2067 64.0478 24.1 64.0478 25.1ZM62.1678 24.72C62.1678 24.0267 62.0145 23.4333 61.7078 22.94C61.4011 22.4333 60.9811 22.0533 60.4478 21.8C59.9278 21.5333 59.3478 21.4 58.7078 21.4C57.7878 21.4 57.0011 21.6933 56.3478 22.28C55.7078 22.8667 55.3411 23.68 55.2478 24.72H62.1678ZM65.7702 25.5C65.7702 24.3667 65.9968 23.38 66.4502 22.54C66.9035 21.6867 67.5302 21.0267 68.3302 20.56C69.1435 20.0933 70.0702 19.86 71.1102 19.86C72.4568 19.86 73.5635 20.1867 74.4302 20.84C75.3102 21.4933 75.8902 22.4 76.1702 23.56H74.2102C74.0235 22.8933 73.6568 22.3667 73.1102 21.98C72.5768 21.5933 71.9102 21.4 71.1102 21.4C70.0702 21.4 69.2302 21.76 68.5902 22.48C67.9502 23.1867 67.6302 24.1933 67.6302 25.5C67.6302 26.82 67.9502 27.84 68.5902 28.56C69.2302 29.28 70.0702 29.64 71.1102 29.64C71.9102 29.64 72.5768 29.4533 73.1102 29.08C73.6435 28.7067 74.0102 28.1733 74.2102 27.48H76.1702C75.8768 28.6 75.2902 29.5 74.4102 30.18C73.5302 30.8467 72.4302 31.18 71.1102 31.18C70.0702 31.18 69.1435 30.9467 68.3302 30.48C67.5302 30.0133 66.9035 29.3533 66.4502 28.5C65.9968 27.6467 65.7702 26.6467 65.7702 25.5ZM79.5386 18.26C79.1919 18.26 78.8986 18.14 78.6586 17.9C78.4186 17.66 78.2986 17.3667 78.2986 17.02C78.2986 16.6733 78.4186 16.38 78.6586 16.14C78.8986 15.9 79.1919 15.78 79.5386 15.78C79.8719 15.78 80.1519 15.9 80.3786 16.14C80.6186 16.38 80.7386 16.6733 80.7386 17.02C80.7386 17.3667 80.6186 17.66 80.3786 17.9C80.1519 18.14 79.8719 18.26 79.5386 18.26ZM80.4186 20.04V31H78.5986V20.04H80.4186ZM88.3005 31.18C87.2738 31.18 86.3405 30.9467 85.5005 30.48C84.6738 30.0133 84.0205 29.3533 83.5405 28.5C83.0738 27.6333 82.8405 26.6333 82.8405 25.5C82.8405 24.38 83.0805 23.3933 83.5605 22.54C84.0538 21.6733 84.7205 21.0133 85.5605 20.56C86.4005 20.0933 87.3405 19.86 88.3805 19.86C89.4205 19.86 90.3605 20.0933 91.2005 20.56C92.0405 21.0133 92.7005 21.6667 93.1805 22.52C93.6738 23.3733 93.9205 24.3667 93.9205 25.5C93.9205 26.6333 93.6671 27.6333 93.1605 28.5C92.6671 29.3533 91.9938 30.0133 91.1405 30.48C90.2871 30.9467 89.3405 31.18 88.3005 31.18ZM88.3005 29.58C88.9538 29.58 89.5671 29.4267 90.1405 29.12C90.7138 28.8133 91.1738 28.3533 91.5205 27.74C91.8805 27.1267 92.0605 26.38 92.0605 25.5C92.0605 24.62 91.8871 23.8733 91.5405 23.26C91.1938 22.6467 90.7405 22.1933 90.1805 21.9C89.6205 21.5933 89.0138 21.44 88.3605 21.44C87.6938 21.44 87.0805 21.5933 86.5205 21.9C85.9738 22.1933 85.5338 22.6467 85.2005 23.26C84.8671 23.8733 84.7005 24.62 84.7005 25.5C84.7005 26.3933 84.8605 27.1467 85.1805 27.76C85.5138 28.3733 85.9538 28.8333 86.5005 29.14C87.0471 29.4333 87.6471 29.58 88.3005 29.58ZM101.653 19.84C102.987 19.84 104.067 20.2467 104.893 21.06C105.72 21.86 106.133 23.02 106.133 24.54V31H104.333V24.8C104.333 23.7067 104.06 22.8733 103.513 22.3C102.967 21.7133 102.22 21.42 101.273 21.42C100.313 21.42 99.5468 21.72 98.9734 22.32C98.4134 22.92 98.1334 23.7933 98.1334 24.94V31H96.3134V20.04H98.1334V21.6C98.4934 21.04 98.9801 20.6067 99.5934 20.3C100.22 19.9933 100.907 19.84 101.653 19.84ZM108.426 25.48C108.426 24.36 108.653 23.38 109.106 22.54C109.56 21.6867 110.18 21.0267 110.966 20.56C111.766 20.0933 112.653 19.86 113.626 19.86C114.586 19.86 115.42 20.0667 116.126 20.48C116.833 20.8933 117.36 21.4133 117.706 22.04V20.04H119.546V31H117.706V28.96C117.346 29.6 116.806 30.1333 116.086 30.56C115.38 30.9733 114.553 31.18 113.606 31.18C112.633 31.18 111.753 30.94 110.966 30.46C110.18 29.98 109.56 29.3067 109.106 28.44C108.653 27.5733 108.426 26.5867 108.426 25.48ZM117.706 25.5C117.706 24.6733 117.54 23.9533 117.206 23.34C116.873 22.7267 116.42 22.26 115.846 21.94C115.286 21.6067 114.666 21.44 113.986 21.44C113.306 21.44 112.686 21.6 112.126 21.92C111.566 22.24 111.12 22.7067 110.786 23.32C110.453 23.9333 110.286 24.6533 110.286 25.48C110.286 26.32 110.453 27.0533 110.786 27.68C111.12 28.2933 111.566 28.7667 112.126 29.1C112.686 29.42 113.306 29.58 113.986 29.58C114.666 29.58 115.286 29.42 115.846 29.1C116.42 28.7667 116.873 28.2933 117.206 27.68C117.54 27.0533 117.706 26.3267 117.706 25.5ZM124.442 21.82C124.762 21.1933 125.215 20.7067 125.802 20.36C126.402 20.0133 127.129 19.84 127.982 19.84V21.72H127.502C125.462 21.72 124.442 22.8267 124.442 25.04V31H122.622V20.04H124.442V21.82ZM139.835 31.14C138.915 31.14 138.088 30.98 137.355 30.66C136.635 30.3267 136.068 29.8733 135.655 29.3C135.242 28.7133 135.028 28.04 135.015 27.28H136.955C137.022 27.9333 137.288 28.4867 137.755 28.94C138.235 29.38 138.928 29.6 139.835 29.6C140.702 29.6 141.382 29.3867 141.875 28.96C142.382 28.52 142.635 27.96 142.635 27.28C142.635 26.7467 142.488 26.3133 142.195 25.98C141.902 25.6467 141.535 25.3933 141.095 25.22C140.655 25.0467 140.062 24.86 139.315 24.66C138.395 24.42 137.655 24.18 137.095 23.94C136.548 23.7 136.075 23.3267 135.675 22.82C135.288 22.3 135.095 21.6067 135.095 20.74C135.095 19.98 135.288 19.3067 135.675 18.72C136.062 18.1333 136.602 17.68 137.295 17.36C138.002 17.04 138.808 16.88 139.715 16.88C141.022 16.88 142.088 17.2067 142.915 17.86C143.755 18.5133 144.228 19.38 144.335 20.46H142.335C142.268 19.9267 141.988 19.46 141.495 19.06C141.002 18.6467 140.348 18.44 139.535 18.44C138.775 18.44 138.155 18.64 137.675 19.04C137.195 19.4267 136.955 19.9733 136.955 20.68C136.955 21.1867 137.095 21.6 137.375 21.92C137.668 22.24 138.022 22.4867 138.435 22.66C138.862 22.82 139.455 23.0067 140.215 23.22C141.135 23.4733 141.875 23.7267 142.435 23.98C142.995 24.22 143.475 24.6 143.875 25.12C144.275 25.6267 144.475 26.32 144.475 27.2C144.475 27.88 144.295 28.52 143.935 29.12C143.575 29.72 143.042 30.2067 142.335 30.58C141.628 30.9533 140.795 31.14 139.835 31.14ZM157.153 25.1C157.153 25.4467 157.133 25.8133 157.093 26.2H148.333C148.4 27.28 148.767 28.1267 149.433 28.74C150.113 29.34 150.933 29.64 151.893 29.64C152.68 29.64 153.333 29.46 153.853 29.1C154.387 28.7267 154.76 28.2333 154.973 27.62H156.933C156.64 28.6733 156.053 29.5333 155.173 30.2C154.293 30.8533 153.2 31.18 151.893 31.18C150.853 31.18 149.92 30.9467 149.093 30.48C148.28 30.0133 147.64 29.3533 147.173 28.5C146.707 27.6333 146.473 26.6333 146.473 25.5C146.473 24.3667 146.7 23.3733 147.153 22.52C147.607 21.6667 148.24 21.0133 149.053 20.56C149.88 20.0933 150.827 19.86 151.893 19.86C152.933 19.86 153.853 20.0867 154.653 20.54C155.453 20.9933 156.067 21.62 156.493 22.42C156.933 23.2067 157.153 24.1 157.153 25.1ZM155.273 24.72C155.273 24.0267 155.12 23.4333 154.813 22.94C154.507 22.4333 154.087 22.0533 153.553 21.8C153.033 21.5333 152.453 21.4 151.813 21.4C150.893 21.4 150.107 21.6933 149.453 22.28C148.813 22.8667 148.447 23.68 148.353 24.72H155.273ZM161.776 21.54V28C161.776 28.5333 161.889 28.9133 162.116 29.14C162.342 29.3533 162.736 29.46 163.296 29.46H164.636V31H162.996C161.982 31 161.222 30.7667 160.716 30.3C160.209 29.8333 159.956 29.0667 159.956 28V21.54H158.536V20.04H159.956V17.28H161.776V20.04H164.636V21.54H161.776ZM171.621 31.18C170.594 31.18 169.661 30.9467 168.821 30.48C167.994 30.0133 167.341 29.3533 166.861 28.5C166.394 27.6333 166.161 26.6333 166.161 25.5C166.161 24.38 166.401 23.3933 166.881 22.54C167.374 21.6733 168.041 21.0133 168.881 20.56C169.721 20.0933 170.661 19.86 171.701 19.86C172.741 19.86 173.681 20.0933 174.521 20.56C175.361 21.0133 176.021 21.6667 176.501 22.52C176.994 23.3733 177.241 24.3667 177.241 25.5C177.241 26.6333 176.987 27.6333 176.481 28.5C175.987 29.3533 175.314 30.0133 174.461 30.48C173.607 30.9467 172.661 31.18 171.621 31.18ZM171.621 29.58C172.274 29.58 172.887 29.4267 173.461 29.12C174.034 28.8133 174.494 28.3533 174.841 27.74C175.201 27.1267 175.381 26.38 175.381 25.5C175.381 24.62 175.207 23.8733 174.861 23.26C174.514 22.6467 174.061 22.1933 173.501 21.9C172.941 21.5933 172.334 21.44 171.681 21.44C171.014 21.44 170.401 21.5933 169.841 21.9C169.294 22.1933 168.854 22.6467 168.521 23.26C168.187 23.8733 168.021 24.62 168.021 25.5C168.021 26.3933 168.181 27.1467 168.501 27.76C168.834 28.3733 169.274 28.8333 169.821 29.14C170.367 29.4333 170.967 29.58 171.621 29.58ZM181.454 21.82C181.774 21.1933 182.227 20.7067 182.814 20.36C183.414 20.0133 184.14 19.84 184.994 19.84V21.72H184.514C182.474 21.72 181.454 22.8267 181.454 25.04V31H179.634V20.04H181.454V21.82Z" fill="white"/>
<path d="M512 36L503.339 21L520.66 21L512 36Z" fill="white"/>
</svg>
